<svg width="404" height="302" viewBox="0 0 404 302" fill="none" xmlns="http://www.w3.org/2000/svg">
<g clip-path="url(#clip0)">
<path d="M173.293 264.987H188.322V161.664H173.293V264.987Z" fill="#DCEAF9"/>
<path d="M178.568 264.971H173.316V245.34H184.143L178.568 264.971Z" fill="#DCEAF9"/>
<path d="M332.425 264.987H347.454V161.664H332.425V264.987Z" fill="#DCEAF9"/>
<path d="M173.31 259.629H337.011V161.719H173.31V259.629Z" fill="#EDF6FF"/>
<path d="M331.765 264.971H337.017V245.34H326.19L331.765 264.971Z" fill="white"/>
<path d="M283.031 169.81V250.836H331.591V169.81H283.031Z" fill="#DCEAF9"/>
<path d="M302.515 172.635H312.13C316.332 172.635 320.291 171.1 323.119 168.515H291.446C294.354 171.181 298.314 172.635 302.515 172.635Z" fill="white"/>
<path d="M230.875 169.771V250.797H279.436V169.771H230.875Z" fill="#DCEAF9"/>
<path d="M249.834 172.635H259.449C263.65 172.635 267.61 171.1 270.438 168.515H238.764C241.754 171.181 245.713 172.635 249.834 172.635Z" fill="white"/>
<path d="M178.72 169.813V250.839H227.281V169.813H178.72Z" fill="#DCEAF9"/>
<path d="M197.718 172.635H207.333C211.535 172.635 215.494 171.1 218.322 168.515H186.648C189.557 171.181 193.516 172.635 197.718 172.635Z" fill="#F0F0F0"/>
<path d="M56.5109 265.028H157.026L157.026 34.3096H56.5109L56.5109 265.028Z" fill="#EDF6FF"/>
<path d="M150.939 259.773L150.939 39.4758L62.7051 39.4758L62.7051 259.773H150.939Z" fill="#DCEAF9"/>
<path d="M142.208 80.4605C142.208 67.212 131.462 56.387 118.13 56.387H95.344C82.0928 56.387 71.2656 67.1312 71.2656 80.4605H142.208Z" fill="#FAFAFA"/>
<path d="M142.221 246.049V193.459H71.279L71.279 246.049H142.221Z" fill="white"/>
<path d="M142.208 95.3247H110.938V186.691H142.208V95.3247Z" fill="white"/>
<path d="M102.616 95.3247H71.3464V186.691H102.616V95.3247Z" fill="white"/>
<path d="M82.6585 140.564H69.8921C68.7609 140.564 67.8721 139.675 67.8721 138.544C67.8721 137.413 68.7609 136.524 69.8921 136.524H82.7393C83.8705 136.524 84.7593 137.413 84.7593 138.544C84.6785 139.675 83.7897 140.564 82.6585 140.564Z" fill="#DCEAF9"/>
<path d="M64.2187 259.795L64.2188 39.4974H62.6027L62.6027 259.795H64.2187Z" fill="white"/>
<path d="M224.188 136.405H333.026V34.2942L224.188 34.2942V136.405Z" fill="#EDF6FF"/>
<path d="M221.447 136.405H330.284V34.2942L221.447 34.2942V136.405Z" fill="#DCEAF9"/>
<path d="M215.088 142.317L333.056 142.317V136.42H215.088V142.317Z" fill="#DCEAF9"/>
<path d="M211.963 142.317H323.871V136.42H211.963V142.317Z" fill="#EDF6FF"/>
<path d="M325.309 131.146V39.6182L226.248 39.6182V131.146H325.309Z" fill="white"/>
<path d="M278.606 131.146V39.6182H273.112V131.146H278.606Z" fill="#DCEAF9"/>
<path d="M228.436 131.139L228.436 39.6115H226.335L226.335 131.139H228.436Z" fill="#DCEAF9"/>
<path d="M280.691 131.081V39.5531H278.591V131.081H280.691Z" fill="#EDF6FF"/>
<path d="M238.764 139.109C236.744 118.348 235.37 84.742 236.421 73.4323C236.421 73.0284 236.663 72.7053 236.986 72.4629C237.956 71.8166 239.249 72.4629 239.168 73.5939C239.006 79.168 238.764 93.1435 239.976 117.136C240.542 129.092 241.43 137.332 240.865 139.029H238.764V139.109Z" fill="#DCEAF9"/>
<path d="M231.33 91.2856C225.594 84.9845 213.958 80.4606 202.081 80.4606C197.395 80.4606 216.221 87.8119 224.058 95.971C230.118 102.272 236.986 112.855 239.33 118.752C237.875 106.392 236.986 97.5867 231.33 91.2856Z" fill="#DCEAF9"/>
<path d="M242.642 93.2244C247.41 86.6001 258.318 81.5915 270.114 81.026C274.72 80.7837 257.106 89.1044 250.48 97.5867C245.39 104.211 240.138 115.117 238.683 121.095C238.36 108.573 237.875 99.7679 242.642 93.2244Z" fill="#DCEAF9"/>
<path d="M231.088 68.1814C226.24 62.8497 216.383 58.9721 206.363 59.0529C202.404 59.0529 218.403 65.2732 225.028 72.1398C230.199 77.4715 236.017 86.4385 237.956 91.4471C236.583 80.9452 235.855 73.5132 231.088 68.1814Z" fill="#DCEAF9"/>
<path d="M240.623 76.0982C244.663 70.5241 253.874 66.2426 263.893 65.7579C267.852 65.5963 252.904 72.5437 247.248 79.7335C242.885 85.3075 238.441 94.5169 237.229 99.6063C236.987 89.1044 236.663 81.6723 240.623 76.0982Z" fill="#DCEAF9"/>
<path d="M239.572 161.729C233.351 161.729 228.179 156.882 227.775 150.662L226.725 132.647H252.339L251.288 150.662C250.965 156.801 245.794 161.729 239.572 161.729Z" fill="#DCEAF9"/>
<path d="M254.035 136.686H225.109L224.301 129.173H254.843L254.035 136.686Z" fill="#DCEAF9"/>
<path d="M202 301.485C288.527 301.485 358.671 297.398 358.671 292.356C358.671 287.315 288.527 283.228 202 283.228C115.473 283.228 45.3289 287.315 45.3289 292.356C45.3289 297.398 115.473 301.485 202 301.485Z" fill="#EDF6FF"/>
<path d="M205.151 283.631L198.445 284.359L195.94 269.09L202.646 268.283L205.151 283.631Z" fill="#FFC3BD"/>
<path d="M235.37 285.086H228.664L226.967 269.494H233.673L235.37 285.086Z" fill="#FFC3BD"/>
<path d="M228.098 284.278H236.34C236.582 284.278 236.825 284.439 236.906 284.762L238.198 290.74C238.36 291.387 237.875 291.952 237.229 291.952C234.562 291.871 232.623 291.791 229.31 291.791C227.29 291.791 221.069 292.033 218.241 292.033C215.494 292.033 215.009 289.206 216.221 288.963C221.392 287.832 225.351 286.297 226.967 284.762C227.29 284.439 227.694 284.278 228.098 284.278Z" fill="#1E2538"/>
<path d="M198.283 283.228L205.555 282.42C205.797 282.42 206.121 282.581 206.201 282.824L208.221 288.64C208.464 289.205 208.06 289.852 207.413 289.933C204.747 290.175 200.949 290.498 197.637 290.821C193.758 291.225 193.112 292.275 188.506 292.194C185.759 292.114 185.032 289.286 186.163 289.125C191.496 288.075 192.465 287.267 196.667 283.955C197.233 283.551 197.717 283.308 198.283 283.228Z" fill="#1E2538"/>
<path d="M204.262 87.1655C202 89.0236 199.738 90.6392 197.475 92.3357C195.213 93.9514 192.789 95.567 190.365 97.0211C187.941 98.4752 185.436 99.9293 182.85 101.222C180.265 102.514 177.518 103.726 174.528 104.696C173.801 104.938 173.074 105.1 172.185 105.342C171.215 105.584 170.488 105.665 169.68 105.746C168.145 105.907 166.771 105.988 165.317 106.069C162.489 106.23 159.661 106.23 156.914 106.15C151.338 106.069 145.844 105.827 140.269 105.342L140.188 100.252C145.602 99.5254 151.096 98.9599 156.51 98.3137C159.176 97.9905 161.923 97.6674 164.509 97.3443C165.802 97.1827 167.094 96.9403 168.306 96.698C168.872 96.6172 169.518 96.4556 169.842 96.3749C170.326 96.2133 170.892 96.0517 171.458 95.8094C173.639 94.9208 175.902 93.7898 178.164 92.4972C180.426 91.2047 182.608 89.8314 184.87 88.3773C187.052 86.9232 189.234 85.3883 191.415 83.8534C193.597 82.3185 195.778 80.7028 197.798 79.0872L204.262 87.1655Z" fill="#FFC3BD"/>
<path d="M210.807 81.4299C209.838 87.8118 196.425 97.5059 196.425 97.5059L186.81 85.5499C186.81 85.5499 193.758 78.1178 200.222 72.7861C204.586 69.3124 211.858 74.4825 210.807 81.4299Z" fill="#007AFF"/>
<path d="M142.127 100.818L138.33 98.0713L137.926 106.634C137.926 106.634 140.026 106.634 140.834 105.099L142.127 100.818Z" fill="#FFC3BD"/>
<path d="M134.855 95.6478L134.047 104.049L137.845 106.715L138.33 98.1521L134.855 95.6478Z" fill="#FFC3BD"/>
<path opacity="0.2" d="M195.94 269.09L197.233 276.926L203.939 276.199L202.646 268.283L195.94 269.09Z" fill="#1E2538"/>
<path opacity="0.2" d="M233.673 269.494H226.967L227.856 277.492H234.562L233.673 269.494Z" fill="#1E2538"/>
<path d="M233.754 73.0284C235.855 73.5131 237.148 75.6135 236.663 77.7138C235.128 83.9342 234.078 90.1545 233.35 96.1325C232.704 101.383 232.3 106.311 232.058 110.835C231.492 121.418 231.734 129.496 231.411 132.243C226.159 131.839 206.282 130.466 195.455 129.739C191.819 101.141 196.102 82.884 198.526 75.4519C199.253 73.1092 201.354 71.4127 203.778 71.0896C205.151 70.928 206.848 70.7665 208.545 70.6049C209.191 70.6049 209.757 70.5241 210.403 70.5241C214.443 70.4433 221.15 71.0088 225.674 71.5743C226.644 71.6551 227.614 71.8166 228.583 71.9782C230.522 72.3821 232.3 72.7053 233.754 73.0284Z" fill="#FFA700"/>
<path d="M225.432 54.3673C224.139 59.2143 222.523 68.1813 225.755 71.655C217.433 77.2291 212.1 85.1459 210.565 83.4494C209.757 82.5608 209.434 72.1397 210.484 70.6048C216.059 69.7162 216.221 65.5962 215.494 61.7186L225.432 54.3673Z" fill="#FFC3BD"/>
<path d="M225.109 69.6355C225.109 69.6355 211.534 75.6135 209.757 89.1044C213.474 84.742 221.796 80.0566 221.796 80.0566L218.16 79.0064C218.16 79.0064 221.392 77.7139 225.351 77.0676C224.947 75.2096 227.129 71.4935 227.129 71.4935L225.109 69.6355Z" fill="#007AFF"/>
<path d="M212.827 69.3931C212.827 69.3931 214.605 77.0675 209.676 89.0235C208.949 84.4188 205.717 76.8252 205.717 76.8252L209.03 77.7138C209.03 77.7138 208.868 76.1789 206.202 74.0785C207.171 72.1397 210.322 69.8778 210.322 69.8778L212.827 69.3931Z" fill="#007AFF"/>
<path opacity="0.2" d="M221.392 57.3563L215.493 61.7186C215.655 62.6073 215.736 63.5767 215.736 64.4653C217.837 64.3037 220.907 62.2033 221.23 60.0222C221.473 58.8912 221.473 57.841 221.392 57.3563Z" fill="#1E2538"/>
<path d="M208.141 40.3109C204.828 40.4725 203.05 46.1274 206.363 50.8128C209.757 55.4175 212.585 40.0686 208.141 40.3109Z" fill="#1E2538"/>
<path d="M224.381 45.2388C224.785 51.9439 225.351 55.8215 222.361 59.6183C217.917 65.354 209.433 63.2536 207.009 56.8717C204.909 51.0553 204.585 41.1189 210.726 37.726C216.867 34.4138 223.977 38.6146 224.381 45.2388Z" fill="#FFC3BD"/>
<path d="M225.351 50.409C220.261 47.1776 218.483 42.8961 218.079 40.7957C216.14 41.2804 206.363 45.7235 203.373 40.7957C200.384 35.8679 204.181 32.9597 209.757 36.0295C207.252 31.6671 209.514 29.486 217.352 29.3244C225.109 29.1628 224.139 33.6867 224.139 33.6867C224.139 33.6867 230.037 31.1017 232.138 35.6255C234.481 40.7149 230.037 49.6011 225.351 50.409Z" fill="#1E2538"/>
<path d="M222.766 32.3943C222.846 32.3943 225.755 33.1213 229.068 29.7284C228.502 32.5558 223.331 34.4946 223.331 34.4946L222.766 32.3943Z" fill="#1E2538"/>
<path d="M226.644 42.1691C223.573 41.1189 219.776 45.7235 221.149 51.2976C222.523 56.7909 230.845 43.6232 226.644 42.1691Z" fill="#1E2538"/>
<path d="M228.421 50.8129C228.098 52.5901 227.048 54.0442 225.836 54.9329C223.977 56.2254 222.361 54.7713 222.281 52.6709C222.2 50.8129 223.008 47.8239 225.189 47.42C227.209 46.9353 228.745 48.7933 228.421 50.8129Z" fill="#FFC3BD"/>
<path d="M205.636 205.675C207.252 185.964 219.13 131.435 219.13 131.435L195.536 129.819C195.536 129.819 186.406 183.944 185.759 204.463C185.032 225.79 193.597 273.291 193.597 273.291L204.909 271.999C204.909 271.999 204.02 225.467 205.636 205.675Z" fill="#007AFF"/>
<path d="M205.636 205.675C207.252 185.964 219.13 131.435 219.13 131.435L195.536 129.819C195.536 129.819 186.406 183.944 185.759 204.463C185.032 225.79 193.597 273.291 193.597 273.291L204.909 271.999C204.909 271.999 204.02 225.467 205.636 205.675Z" fill="#1E2538"/>
<path opacity="0.2" d="M210.241 149.854C205.474 155.912 205.393 177.32 207.252 193.154C209.029 181.763 211.777 167.303 214.201 155.185L210.241 149.854Z" fill="#1E2538"/>
<path d="M208.302 130.627C208.302 130.627 210.888 188.307 213.716 207.856C216.867 229.264 224.705 275.957 224.705 275.957H237.067C237.067 275.957 235.047 231.93 233.431 210.926C231.573 187.014 231.492 132.243 231.492 132.243L208.302 130.627Z" fill="#007AFF"/>
<path d="M208.302 130.627C208.302 130.627 210.888 188.307 213.716 207.856C216.867 229.264 224.705 275.957 224.705 275.957H237.067C237.067 275.957 235.047 231.93 233.431 210.926C231.573 187.014 231.492 132.243 231.492 132.243L208.302 130.627Z" fill="#2C354D"/>
<path d="M223.25 276.199H237.794V271.918L221.553 271.595L223.25 276.199Z" fill="#007AFF"/>
<path d="M193.112 274.584L206.606 273.049L206.121 268.687L191.011 270.141L193.112 274.584Z" fill="#007AFF"/>
<path d="M214.524 48.3085C214.605 48.874 214.362 49.3587 214.039 49.3587C213.716 49.4395 213.312 49.0356 213.312 48.4701C213.231 47.9046 213.473 47.4199 213.797 47.4199C214.12 47.4199 214.443 47.8238 214.524 48.3085Z" fill="#1E2538"/>
<path d="M208.464 49.0356C208.545 49.6011 208.302 50.0858 207.979 50.0858C207.656 50.1666 207.252 49.7627 207.252 49.1972C207.171 48.6317 207.414 48.147 207.737 48.147C208.06 48.147 208.383 48.5509 208.464 49.0356Z" fill="#1E2538"/>
<path d="M210.403 49.1165C210.403 49.1165 209.514 52.3478 208.383 54.0443C209.433 54.8521 211.049 54.2058 211.049 54.2058L210.403 49.1165Z" fill="#FF6961"/>
<path d="M216.221 46.1274C216.14 46.1274 215.978 46.1274 215.898 46.0466C214.928 44.9965 213.716 45.2388 213.716 45.2388C213.554 45.2388 213.393 45.158 213.312 44.9965C213.312 44.8349 213.393 44.6733 213.554 44.5925C213.635 44.5925 215.09 44.3502 216.302 45.5619C216.463 45.7235 216.382 45.8851 216.302 46.0466C216.302 46.1274 216.221 46.1274 216.221 46.1274Z" fill="#1E2538"/>
<path d="M213.877 56.3869C216.544 55.7406 217.352 53.6403 217.352 53.5595C217.352 53.4787 217.352 53.3979 217.271 53.3171C217.19 53.3171 217.109 53.3171 217.029 53.3979C217.029 53.3979 216.301 55.4175 213.797 56.0638C213.716 56.0638 213.635 56.1446 213.635 56.3061C213.716 56.3061 213.797 56.3869 213.877 56.3869Z" fill="#1E2538"/>
<path d="M205.555 47.2584C205.474 47.2584 205.393 47.2584 205.393 47.2584C205.232 47.1776 205.151 47.016 205.232 46.8544C205.797 45.158 207.252 44.8348 207.333 44.8348C207.494 44.7541 207.656 44.9156 207.737 45.0772C207.818 45.2388 207.656 45.4003 207.494 45.4811C207.414 45.4811 206.363 45.8042 205.878 47.0968C205.717 47.1776 205.636 47.2584 205.555 47.2584Z" fill="#1E2538"/>
<path d="M225.836 285.49C225.351 285.49 224.866 285.409 224.543 285.166C224.301 284.924 224.22 284.682 224.22 284.359C224.22 284.116 224.382 283.955 224.462 283.874C225.19 283.47 227.371 284.843 227.614 285.005C227.694 285.005 227.694 285.086 227.694 285.166C227.694 285.247 227.614 285.247 227.614 285.328C227.129 285.328 226.482 285.49 225.836 285.49ZM224.866 284.035C224.786 284.035 224.705 284.035 224.624 284.035C224.543 284.035 224.543 284.116 224.543 284.197C224.543 284.439 224.624 284.601 224.786 284.762C225.19 285.086 225.998 285.086 227.21 284.924C226.402 284.601 225.351 284.035 224.866 284.035Z" fill="#007AFF"/>
<path d="M227.533 285.247C226.725 284.843 225.432 283.389 225.594 282.662C225.594 282.5 225.755 282.258 226.078 282.258C226.321 282.258 226.563 282.258 226.725 282.5C227.533 283.147 227.694 285.086 227.694 285.166C227.694 285.247 227.694 285.247 227.614 285.328C227.614 285.247 227.614 285.247 227.533 285.247ZM226.24 282.5C226.159 282.5 226.159 282.5 226.24 282.5C225.998 282.5 225.917 282.662 225.917 282.662C225.836 283.066 226.725 284.197 227.371 284.762C227.29 284.197 227.048 283.066 226.563 282.662C226.482 282.581 226.321 282.5 226.24 282.5Z" fill="#007AFF"/>
<path d="M197.717 284.197C196.667 284.52 194.728 285.005 193.92 284.439C193.677 284.278 193.516 284.035 193.516 283.712C193.516 283.551 193.597 283.389 193.758 283.227C194.485 282.662 197.394 283.712 197.717 283.874C197.798 283.874 197.798 283.955 197.798 284.035C197.879 284.116 197.798 284.197 197.717 284.197ZM194.001 283.551C193.92 283.631 193.839 283.631 193.92 283.793C193.92 284.035 194.001 284.197 194.162 284.278C194.647 284.601 195.697 284.52 197.152 284.116C196.021 283.631 194.485 283.227 194.001 283.551Z" fill="#007AFF"/>
<path d="M197.717 284.197C197.717 284.197 197.637 284.197 197.556 284.197C196.667 283.955 194.97 282.662 194.97 281.854C194.97 281.693 195.051 281.45 195.536 281.369C195.859 281.289 196.182 281.369 196.425 281.531C197.394 282.097 197.717 283.955 197.717 283.955C197.879 284.116 197.798 284.116 197.717 284.197C197.798 284.197 197.798 284.197 197.717 284.197ZM195.455 281.773C195.374 281.854 195.374 281.935 195.374 281.935C195.374 282.42 196.586 283.389 197.475 283.793C197.313 283.308 196.99 282.258 196.344 281.854C196.101 281.693 195.94 281.693 195.697 281.693C195.617 281.693 195.536 281.773 195.455 281.773Z" fill="#007AFF"/>
<path d="M239.491 82.8032C239.33 85.4691 239.006 87.8926 238.683 90.3969C238.36 92.9012 237.956 95.4054 237.471 97.9097C236.502 102.918 235.29 107.927 233.35 112.935L232.542 114.794L232.3 115.278L232.219 115.359L232.138 115.521L231.896 116.005C231.573 116.571 231.169 117.136 230.765 117.54C229.957 118.429 229.149 119.075 228.341 119.56C227.533 120.044 226.806 120.368 225.998 120.691C223.008 121.822 220.342 122.145 217.675 122.387C212.423 122.791 207.333 122.549 202.242 121.822L202.404 116.732L205.959 116.328C207.171 116.167 208.302 116.005 209.514 115.844C211.858 115.521 214.201 115.117 216.463 114.632C218.645 114.147 220.826 113.501 222.442 112.693C223.17 112.289 223.735 111.805 223.735 111.724C223.735 111.643 223.493 112.128 223.816 111.32L224.382 109.785C225.674 105.503 226.644 100.818 227.371 96.1325C227.775 93.7898 228.098 91.447 228.422 89.0235C228.745 86.6808 228.987 84.2573 229.23 81.9954L239.491 82.8032Z" fill="#FFC3BD"/>
<path d="M240.057 77.8754C243.37 83.3687 240.542 100.818 240.542 100.818L223.25 97.5866C223.25 97.5866 222.281 87.6502 225.594 79.9757C229.23 71.655 236.098 71.1703 240.057 77.8754Z" fill="#007AFF"/>
<path d="M197.718 132.404L188.587 89.7506C187.779 86.1153 184.224 83.1263 180.588 83.1263H152.066H145.44C149.076 83.1263 152.712 86.1153 153.439 89.7506L162.57 132.404C163.378 136.04 166.933 139.029 170.569 139.029H199.091H205.717C202.081 139.029 198.526 136.12 197.718 132.404Z" fill="#1E2538"/>
<path d="M197.718 132.404L188.587 89.7506C187.779 86.1153 184.224 83.1263 180.588 83.1263H152.066H145.44C149.076 83.1263 152.712 86.1153 153.439 89.7506L162.57 132.404C163.378 136.04 166.933 139.029 170.569 139.029H199.091H205.717C202.081 139.029 198.526 136.12 197.718 132.404Z" fill="#7ECB76"/>
<path d="M131.119 135.479L130.2 145.454L131.005 145.528L131.924 135.553L131.119 135.479Z" fill="#60B158"/>
<path d="M129.869 149.371L129.484 153.554L130.288 153.628L130.674 149.445L129.869 149.371Z" fill="#60B158"/>
<path d="M145.359 83.2072H173.882H180.507C176.871 83.2072 173.639 86.1961 173.316 89.8314L164.186 188.953C163.862 192.588 160.63 195.577 156.994 195.577H135.098C131.462 195.577 128.795 192.588 129.118 188.953L138.168 89.8314C138.491 86.1154 141.723 83.2072 145.359 83.2072Z" fill="#60B158"/>
<path d="M151.015 188.872C150.692 192.507 153.358 195.496 156.994 195.496H150.369H121.846C118.21 195.496 115.544 192.507 115.867 188.872H151.015Z" fill="#1E2538"/>
<path d="M151.015 188.872C150.692 192.507 153.358 195.496 156.994 195.496H150.369H121.846C118.21 195.496 115.544 192.507 115.867 188.872H151.015Z" fill="#7ECB76"/>
<g opacity="0.5">
<path opacity="0.5" d="M167.256 94.2745H143.501C142.693 94.2745 142.127 93.6283 142.208 92.8204C142.289 92.0126 143.016 91.3663 143.743 91.3663H167.498C168.306 91.3663 168.872 92.0126 168.791 92.8204C168.71 93.6283 167.983 94.2745 167.256 94.2745Z" fill="white"/>
<path opacity="0.5" d="M166.529 102.03H142.773C141.965 102.03 141.4 101.384 141.481 100.576C141.561 99.7679 142.289 99.1216 143.016 99.1216H166.771C167.579 99.1216 168.145 99.7679 168.064 100.576C167.983 101.384 167.337 102.03 166.529 102.03Z" fill="white"/>
<path opacity="0.5" d="M159.984 109.866H142.046C141.238 109.866 140.673 109.22 140.754 108.412C140.834 107.604 141.562 106.958 142.289 106.958H160.226C161.034 106.958 161.6 107.604 161.519 108.412C161.438 109.22 160.792 109.866 159.984 109.866Z" fill="white"/>
<path opacity="0.5" d="M147.379 117.621H141.319C140.511 117.621 139.945 116.975 140.026 116.167C140.107 115.359 140.834 114.713 141.561 114.713H147.621C148.429 114.713 148.995 115.359 148.914 116.167C148.914 116.975 148.187 117.621 147.379 117.621Z" fill="white"/>
<path opacity="0.5" d="M164.428 125.376H140.592C139.784 125.376 139.218 124.73 139.299 123.922C139.38 123.114 140.107 122.468 140.834 122.468H164.589C165.397 122.468 165.963 123.114 165.882 123.922C165.882 124.73 165.155 125.376 164.428 125.376Z" fill="white"/>
<path opacity="0.5" d="M154.328 133.212H139.945C139.137 133.212 138.572 132.566 138.653 131.758C138.733 130.95 139.461 130.304 140.188 130.304H154.57C155.378 130.304 155.944 130.95 155.863 131.758C155.782 132.566 155.136 133.212 154.328 133.212Z" fill="white"/>
<path opacity="0.5" d="M162.973 140.968H139.218C138.41 140.968 137.845 140.321 137.925 139.513C138.006 138.706 138.733 138.059 139.461 138.059H163.216C164.024 138.059 164.589 138.706 164.509 139.513C164.509 140.321 163.781 140.968 162.973 140.968Z" fill="white"/>
<path opacity="0.5" d="M156.429 148.723H138.491C137.683 148.723 137.117 148.077 137.198 147.269C137.279 146.461 138.006 145.815 138.733 145.815H156.671C157.479 145.815 158.044 146.461 157.964 147.269C157.964 148.077 157.237 148.723 156.429 148.723Z" fill="white"/>
<path opacity="0.5" d="M143.905 156.478H137.845C137.037 156.478 136.471 155.832 136.552 155.024C136.633 154.216 137.36 153.57 138.087 153.57H144.147C144.955 153.57 145.521 154.216 145.44 155.024C145.359 155.832 144.632 156.478 143.905 156.478Z" fill="white"/>
<path opacity="0.5" d="M160.873 164.314H137.117C136.309 164.314 135.744 163.668 135.825 162.86C135.905 162.052 136.633 161.406 137.36 161.406H161.115C161.923 161.406 162.489 162.052 162.408 162.86C162.327 163.668 161.681 164.314 160.873 164.314Z" fill="white"/>
<path opacity="0.5" d="M150.773 172.069H136.39C135.582 172.069 135.017 171.423 135.098 170.615C135.178 169.807 135.906 169.161 136.633 169.161H151.015C151.823 169.161 152.389 169.807 152.308 170.615C152.308 171.423 151.581 172.069 150.773 172.069Z" fill="white"/>
<path opacity="0.5" d="M159.418 179.824H135.663C134.855 179.824 134.289 179.178 134.37 178.37C134.451 177.563 135.178 176.916 135.905 176.916H159.661C160.469 176.916 161.034 177.563 160.953 178.37C160.953 179.178 160.226 179.824 159.418 179.824Z" fill="white"/>
</g>
<path d="M204.585 117.379L199.414 112.855L196.99 121.095C196.99 121.095 202.242 123.922 204.02 121.337L204.585 117.379Z" fill="#FFC3BD"/>
<path d="M193.839 112.532L192.142 119.479L196.99 121.095L199.414 112.855L193.839 112.532Z" fill="#FFC3BD"/>
<path d="M322.168 282.28C322.154 282.28 322.141 282.279 322.128 282.276C322.102 282.271 322.078 282.26 322.057 282.246C322.036 282.231 322.018 282.213 322.004 282.191C321.99 282.169 321.98 282.145 321.976 282.12C321.972 282.094 321.972 282.068 321.978 282.043C326.002 263.174 324.119 245.261 316.38 228.799C311.627 218.572 304.764 209.465 296.241 202.077C296.221 202.06 296.205 202.04 296.193 202.018C296.181 201.995 296.173 201.971 296.171 201.945C296.168 201.92 296.171 201.894 296.178 201.87C296.186 201.845 296.198 201.822 296.214 201.803C296.231 201.783 296.251 201.767 296.273 201.755C296.296 201.743 296.321 201.735 296.346 201.733C296.372 201.731 296.397 201.734 296.422 201.741C296.446 201.749 296.469 201.761 296.489 201.778C305.055 209.203 311.953 218.355 316.731 228.634C324.507 245.174 326.4 263.171 322.358 282.123C322.349 282.167 322.326 282.207 322.291 282.235C322.256 282.264 322.213 282.279 322.168 282.28Z" fill="#263238"/>
<path d="M329.424 246.932C328.135 249.722 326.163 252.142 323.691 253.97C323.271 250.916 323.699 247.806 324.928 244.979C326.157 242.152 328.14 239.717 330.661 237.941C331.011 240.994 330.586 244.086 329.424 246.932Z" fill="#263238"/>
<path d="M311.354 223.477C313.875 225.236 315.913 227.601 317.279 230.355C314.197 230.231 311.209 229.264 308.64 227.558C306.072 225.852 304.022 223.473 302.715 220.681C305.784 220.873 308.755 221.835 311.354 223.477Z" fill="#263238"/>
<path d="M308.293 204.258C308.711 207.302 308.354 210.403 307.256 213.274C305.256 210.928 303.94 208.077 303.452 205.034C302.964 201.99 303.323 198.871 304.489 196.017C306.429 198.401 307.738 201.235 308.293 204.258Z" fill="#007AFF"/>
<path d="M297.864 201.766C297.897 202.063 297.841 202.362 297.703 202.627C297.566 202.891 297.353 203.109 297.091 203.253C296.829 203.396 296.531 203.459 296.234 203.433C295.937 203.407 295.654 203.294 295.421 203.107C295.188 202.921 295.016 202.669 294.926 202.385C294.837 202.1 294.833 201.796 294.917 201.509C295 201.223 295.167 200.968 295.395 200.776C295.624 200.584 295.904 200.465 296.201 200.432C296.598 200.389 296.997 200.505 297.309 200.755C297.621 201.005 297.821 201.369 297.864 201.766Z" fill="#007AFF"/>
<path d="M326.723 278.426C326.685 278.426 326.648 278.414 326.616 278.393C326.584 278.372 326.559 278.341 326.545 278.306C320.017 262.781 318.712 247.11 322.665 231.728C325.075 222.178 329.479 213.246 335.588 205.518C335.622 205.481 335.668 205.459 335.718 205.455C335.767 205.452 335.816 205.468 335.855 205.499C335.893 205.531 335.918 205.576 335.924 205.626C335.93 205.675 335.917 205.725 335.887 205.765C329.814 213.449 325.436 222.33 323.04 231.825C319.108 247.123 320.406 262.712 326.9 278.157C326.91 278.181 326.915 278.206 326.915 278.231C326.915 278.257 326.911 278.282 326.901 278.306C326.891 278.329 326.877 278.351 326.859 278.369C326.841 278.387 326.82 278.401 326.796 278.411C326.773 278.421 326.748 278.426 326.723 278.426Z" fill="#263238"/>
<path d="M317.846 261.678C319.076 262.963 320.61 263.917 322.306 264.453C321.962 262.703 321.143 261.081 319.939 259.765C318.734 258.448 317.191 257.489 315.477 256.991C315.861 258.727 316.676 260.339 317.846 261.678Z" fill="#007AFF"/>
<path d="M323.49 232.55C322.402 234.223 321.755 236.144 321.606 238.134C323.43 237.308 324.991 235.996 326.12 234.342C327.248 232.689 327.9 230.757 328.004 228.758C326.204 229.623 324.652 230.927 323.49 232.55Z" fill="#007AFF"/>
<path d="M323.177 220.925C323.32 222.556 323.872 224.125 324.782 225.486C325.543 224.031 325.889 222.395 325.782 220.756C325.676 219.118 325.121 217.54 324.178 216.196C323.452 217.663 323.108 219.29 323.177 220.925Z" fill="#007AFF"/>
<path d="M332.91 211.078C331.544 211.981 330.428 213.213 329.664 214.661C331.307 214.637 332.911 214.161 334.301 213.287C335.691 212.412 336.814 211.172 337.547 209.702C335.91 209.764 334.315 210.237 332.91 211.078Z" fill="#007AFF"/>
<path d="M334.433 205.744C334.454 206.002 334.55 206.248 334.711 206.452C334.871 206.655 335.088 206.807 335.335 206.887C335.581 206.967 335.846 206.972 336.096 206.902C336.345 206.832 336.568 206.689 336.737 206.492C336.905 206.295 337.011 206.052 337.042 205.795C337.072 205.538 337.026 205.277 336.908 205.046C336.79 204.815 336.607 204.625 336.38 204.498C336.154 204.371 335.895 204.315 335.637 204.335C335.291 204.363 334.969 204.526 334.744 204.79C334.518 205.055 334.406 205.397 334.433 205.744Z" fill="#007AFF"/>
<path d="M339.181 291.051L338.453 290.781C338.94 289.421 339.18 287.985 339.162 286.541H339.938C339.956 288.077 339.7 289.605 339.181 291.051Z" fill="#007AFF"/>
<path d="M338.575 282.481C337.764 279.706 336.153 277.231 333.944 275.365L334.445 274.773C336.77 276.738 338.465 279.343 339.32 282.263L338.575 282.481Z" fill="#007AFF"/>
<path d="M330.016 275.108L331.589 268.662H317.452L319.025 275.108C316.868 276.141 315.047 277.762 313.772 279.785C312.497 281.807 311.82 284.149 311.819 286.54C311.819 293.552 317.505 296.08 324.521 296.08C331.537 296.08 337.223 293.549 337.223 286.54C337.221 284.149 336.544 281.807 335.269 279.785C333.994 277.762 332.173 276.141 330.016 275.108Z" fill="#007AFF"/>
</g>
<defs>
<clipPath id="clip0">
<rect width="404" height="301" fill="white" transform="translate(0 0.484619)"/>
</clipPath>
</defs>
</svg>
