<svg width="17" height="17" viewBox="0 0 17 17" fill="none" xmlns="http://www.w3.org/2000/svg">
<path d="M7.14708 11.0429L8.14583 12.0417L11.6875 8.5L8.14583 4.95833L7.14708 5.95708L8.97458 7.79167H2.125V9.20833H8.97458L7.14708 11.0429ZM13.4583 2.125H3.54167C2.75542 2.125 2.125 2.7625 2.125 3.54167V6.375H3.54167V3.54167H13.4583V13.4583H3.54167V10.625H2.125V13.4583C2.125 14.2375 2.75542 14.875 3.54167 14.875H13.4583C14.2375 14.875 14.875 14.2375 14.875 13.4583V3.54167C14.875 2.7625 14.2375 2.125 13.4583 2.125Z" fill="#0008FF"/>
<path d="M7.14708 11.0429L8.14583 12.0417L11.6875 8.5L8.14583 4.95833L7.14708 5.95708L8.97458 7.79167H2.125V9.20833H8.97458L7.14708 11.0429ZM13.4583 2.125H3.54167C2.75542 2.125 2.125 2.7625 2.125 3.54167V6.375H3.54167V3.54167H13.4583V13.4583H3.54167V10.625H2.125V13.4583C2.125 14.2375 2.75542 14.875 3.54167 14.875H13.4583C14.2375 14.875 14.875 14.2375 14.875 13.4583V3.54167C14.875 2.7625 14.2375 2.125 13.4583 2.125Z" fill="black" fill-opacity="0.25"/>
</svg>
