<svg width="14" height="13" viewBox="0 0 14 13" fill="none" xmlns="http://www.w3.org/2000/svg">
<path d="M12.25 5.41634H1.75M9.33333 1.08301V3.24967M4.66667 1.08301V3.24967M6.125 7.58301L7 7.04134V9.74967M6.27083 9.74967H7.72917M4.55 11.9163H9.45C10.4301 11.9163 10.9201 11.9163 11.2945 11.7392C11.6238 11.5834 11.8915 11.3348 12.0593 11.0291C12.25 10.6815 12.25 10.2264 12.25 9.31634V4.76634C12.25 3.85626 12.25 3.40121 12.0593 3.05361C11.8915 2.74784 11.6238 2.49925 11.2945 2.34346C10.9201 2.16634 10.4301 2.16634 9.45 2.16634H4.55C3.56991 2.16634 3.07986 2.16634 2.70552 2.34346C2.37623 2.49925 2.10852 2.74784 1.94074 3.05361C1.75 3.40121 1.75 3.85626 1.75 4.76634V9.31634C1.75 10.2264 1.75 10.6815 1.94074 11.0291C2.10852 11.3348 2.37623 11.5834 2.70552 11.7392C3.07986 11.9163 3.56991 11.9163 4.55 11.9163Z" stroke="#787878" stroke-width="1.5" stroke-linecap="round" stroke-linejoin="round"/>
</svg>
