<svg width="24" height="33" viewBox="0 0 24 33" fill="none" xmlns="http://www.w3.org/2000/svg">
<path d="M10.5495 7.111C11.3874 6.40441 12.6126 6.40441 13.4505 7.111L20.2005 12.8031C20.7074 13.2306 21 13.86 21 14.5232V24.3259C21 25.2924 20.2165 26.0759 19.25 26.0759H15.75C14.7835 26.0759 14 25.2924 14 24.3259V18.8259C14 18.6879 13.8881 18.5759 13.75 18.5759H10.25C10.1119 18.5759 9.99999 18.6879 9.99999 18.8259V24.3259C9.99999 25.2924 9.2165 26.0759 8.25 26.0759H4.75C3.7835 26.0759 3 25.2924 3 24.3259V14.5232C3 13.86 3.29255 13.2306 3.79952 12.8031L10.5495 7.111ZM12.4835 8.2577C12.2042 8.02217 11.7958 8.02217 11.5165 8.2577L4.76651 13.9498C4.59752 14.0923 4.5 14.3021 4.5 14.5232V24.3259C4.5 24.464 4.61193 24.5759 4.75 24.5759H8.25C8.38807 24.5759 8.49999 24.464 8.49999 24.3259V18.8259C8.49999 17.8594 9.2835 17.0759 10.25 17.0759H13.75C14.7165 17.0759 15.5 17.8594 15.5 18.8259V24.3259C15.5 24.464 15.6119 24.5759 15.75 24.5759H19.25C19.3881 24.5759 19.5 24.464 19.5 24.3259V14.5232C19.5 14.3021 19.4025 14.0923 19.2335 13.9498L12.4835 8.2577Z" fill="#005FD0"/>
</svg>
