<svg width="22" height="17" viewBox="0 0 22 17" fill="none" xmlns="http://www.w3.org/2000/svg">
<path d="M1.83398 4.125L6.59501 7.15474C6.86968 7.32953 7.00702 7.41693 7.1556 7.47884C7.28748 7.5338 7.42568 7.57374 7.56735 7.59784C7.72695 7.625 7.89201 7.625 8.22213 7.625H13.7792C14.1093 7.625 14.2743 7.625 14.434 7.59784C14.5756 7.57374 14.7138 7.5338 14.8457 7.47884C14.9943 7.41693 15.1316 7.32953 15.4063 7.15474L20.1673 4.125M6.23398 15.5H15.7673C17.3075 15.5 18.0775 15.5 18.6658 15.2139C19.1832 14.9622 19.6039 14.5607 19.8676 14.0667C20.1673 13.5052 20.1673 12.7701 20.1673 11.3V5.7C20.1673 4.22986 20.1673 3.49479 19.8676 2.93327C19.6039 2.43935 19.1832 2.03778 18.6658 1.78611C18.0775 1.5 17.3075 1.5 15.7673 1.5H6.23398C4.69384 1.5 3.92377 1.5 3.33551 1.78611C2.81806 2.03778 2.39737 2.43935 2.13372 2.93327C1.83398 3.49479 1.83398 4.22986 1.83398 5.7V11.3C1.83398 12.7701 1.83398 13.5052 2.13372 14.0667C2.39737 14.5607 2.81806 14.9622 3.33551 15.2139C3.92377 15.5 4.69384 15.5 6.23398 15.5Z" stroke="#F2F2F2" stroke-width="2" stroke-linecap="round" stroke-linejoin="round"/>
</svg>
