<svg width="22" height="21" viewBox="0 0 22 21" fill="none" xmlns="http://www.w3.org/2000/svg">
<path d="M1.83301 6.125L6.59403 9.15474C6.8687 9.32953 7.00604 9.41693 7.15462 9.47884C7.2865 9.5338 7.4247 9.57374 7.56637 9.59784C7.72598 9.625 7.89103 9.625 8.22115 9.625H13.7782C14.1083 9.625 14.2734 9.625 14.433 9.59784C14.5746 9.57374 14.7128 9.5338 14.8447 9.47884C14.9933 9.41693 15.1307 9.32953 15.4053 9.15474L20.1663 6.125M6.23301 17.5H15.7663C17.3065 17.5 18.0766 17.5 18.6648 17.2139C19.1823 16.9622 19.603 16.5607 19.8666 16.0667C20.1663 15.5052 20.1663 14.7701 20.1663 13.3V7.7C20.1663 6.22986 20.1663 5.49479 19.8666 4.93327C19.603 4.43935 19.1823 4.03778 18.6648 3.78611C18.0766 3.5 17.3065 3.5 15.7663 3.5H6.23301C4.69286 3.5 3.92279 3.5 3.33453 3.78611C2.81709 4.03778 2.39639 4.43935 2.13274 4.93327C1.83301 5.49479 1.83301 6.22986 1.83301 7.7V13.3C1.83301 14.7701 1.83301 15.5052 2.13274 16.0667C2.39639 16.5607 2.81709 16.9622 3.33453 17.2139C3.92279 17.5 4.69286 17.5 6.23301 17.5Z" stroke="#F2F2F2" stroke-width="2" stroke-linecap="round" stroke-linejoin="round"/>
</svg>
