<svg width="15" height="15" viewBox="0 0 15 15" fill="none" xmlns="http://www.w3.org/2000/svg">
<g clip-path="url(#clip0_1171_24889)">
<path d="M13.7499 12.4501V10.5751C13.7575 10.2685 13.6522 9.96992 13.454 9.73599C13.2558 9.50206 12.9785 9.34914 12.6749 9.30631C12.0749 9.22717 11.4857 9.0804 10.9186 8.86881C10.6949 8.78472 10.4518 8.76652 10.2181 8.81637C9.98437 8.86622 9.76983 8.98202 9.5999 9.15006L8.80615 9.94381C7.24143 9.05409 5.94587 7.75853 5.05615 6.19381L5.8499 5.40006C6.01794 5.23013 6.13374 5.01559 6.18359 4.78186C6.23344 4.54813 6.21524 4.30501 6.13115 4.08131C5.91955 3.51426 5.77279 2.9251 5.69365 2.32506C5.6512 2.02471 5.50098 1.75005 5.271 1.55227C5.04102 1.35448 4.74696 1.24708 4.44365 1.25006H2.56865C2.39511 1.25022 2.22351 1.28652 2.06477 1.35664C1.90603 1.42675 1.76362 1.52916 1.64663 1.65732C1.52963 1.78549 1.4406 1.93662 1.38521 2.10108C1.32982 2.26554 1.30928 2.43973 1.3249 2.61256C1.53005 4.54443 2.18738 6.40081 3.24365 8.03131C4.20323 9.54142 5.48354 10.8217 6.99365 11.7813C8.61677 12.8339 10.4642 13.4911 12.3874 13.7001C12.5608 13.7157 12.7355 13.695 12.9004 13.6393C13.0653 13.5835 13.2167 13.4939 13.3449 13.3762C13.4732 13.2586 13.5755 13.1154 13.6452 12.9559C13.7149 12.7964 13.7506 12.6241 13.7499 12.4501Z" stroke="#787878" stroke-width="2" stroke-linecap="round" stroke-linejoin="round"/>
</g>
<defs>
<clipPath id="clip0_1171_24889">
<rect width="15" height="15" fill="white"/>
</clipPath>
</defs>
</svg>
