<svg width="33" height="29" viewBox="0 0 33 29" fill="none" xmlns="http://www.w3.org/2000/svg">
<path d="M7.30991 23.4884C8.14635 21.7566 10.0993 20.542 12.375 20.542H20.625C22.9007 20.542 24.8536 21.7566 25.6901 23.4884M22 11.4795C22 14.1489 19.5376 16.3128 16.5 16.3128C13.4624 16.3128 11 14.1489 11 11.4795C11 8.81012 13.4624 6.64616 16.5 6.64616C19.5376 6.64616 22 8.81012 22 11.4795ZM30.25 14.5003C30.25 21.1738 24.0939 26.5837 16.5 26.5837C8.90608 26.5837 2.75 21.1738 2.75 14.5003C2.75 7.82688 8.90608 2.41699 16.5 2.41699C24.0939 2.41699 30.25 7.82688 30.25 14.5003Z" stroke="white" stroke-width="2" stroke-linecap="round" stroke-linejoin="round"/>
</svg>
